<svg xmlns="http://www.w3.org/2000/svg" viewBox="0 0 230 271">
  <path d="m128.75 207.02c2.9281-0.9878 5.8914-2.1167 9.0311-2.2931 2.1873 0 4.057 1.6228 5.0448 3.4572 0.8113 1.7287 0.9172 3.6689 1.1641 5.5739 0.1059 0.7409 0.882 1.1995 1.5875 1.2348 1.7639 0.0705 3.4925-0.5292 5.2564-0.5998 2.1872 0.1764 4.4803 0.6703 6.1031 2.2578 1.1641 0.9878 1.5522 2.54 2.1166 3.9158-1.7639 1.7992-2.7164 4.3039-2.293 6.7734 0.5644 3.563 0.9525 7.62-1.1289 10.795-0.9525 1.7286-2.3989 3.1397-4.1981 3.9511-2.8222 1.3053-5.3269 3.3161-7.3025 5.715-1.2347 1.4816-2.5047 2.8928-3.9864 4.1275-1.9402 1.6933-4.445 2.6811-5.9972 4.7978-2.0814-1.6934-4.9036-2.54-6.2794-4.9742-0.4586-0.5292-0.5997-1.517-1.4111-1.4464-1.3759-0.0706-2.7517-0.1058-4.1275 0.0353-0.7409 0.2469-1.3406 0.7761-1.9756 1.1641-1.5169 1.0231-3.3161 1.5523-4.8683 2.5753-2.9986 1.5522-6.4206 2.4342-9.8072 2.152-5.2564-0.8114-9.3839-5.0448-14.817-5.2917-2.152-0.0706-4.3039-0.635-6.1736-1.7639 0.2116-1.4464 0.635-2.8575 1.27-4.1275 0.5997-1.3053 1.5169-2.3989 1.9403-3.7394-1.8698-0.2117-4.0217 0.8819-5.715-0.3528-1.1289-1.0936-1.3406-2.7869-2.2931-4.0569-0.9525-1.6581-2.5753-2.787-4.3039-3.5278 1.6933-0.6703 3.5278-1.1289 5.3975-1.0231 4.1628 0.2117 8.255 1.1995 12.136 2.6459 1.4111 0.5291 3.2102 0.8113 4.5155-0.1764 1.3053-0.8467 1.5522-2.54 1.5875-3.9864 0-3.7042 0.4586-7.4789 1.7992-10.971 1.1994-3.1397 3.9511-5.4328 6.985-6.7733 2.3989-1.0937 4.8683-1.9756 7.3378-2.8575 4.445-1.1642 8.9252-2.1873 13.406-3.2103z" fill="#fff"/>
</svg>
