<svg xmlns="http://www.w3.org/2000/svg" viewBox="0 0 230 271">
  <path d="m146.78 173.93c1.0936-0.7055 2.1872-1.4111 3.3866-1.8697 2.152 0.4939 4.1628 1.3758 6.35 1.6933 0.9525 0.1764 2.1167 0.1411 2.8575 0.9525 1.4464 1.4111 2.0814 3.3514 3.0339 5.1153 0.7761 1.3758 0.882 3.1397 0.1764 4.5861-1.1994 2.4342-2.54 4.8331-3.4925 7.4084-0.3175 0.8466-0.5997 1.8697-0.1058 2.6811 0.8819 1.6227 2.9633 1.9402 4.0216 3.3866 0.2823 0.882 0.1059 1.8345 0.4939 2.6811 0.7056 1.5523 2.0814 2.6459 3.4925 3.5278 2.9281 1.7286 6.1736 2.8575 9.1722 4.4097-2.293 0.882-4.445 2.0814-6.3147 3.5984-3.2103 2.7869-6.5969 5.3269-9.9483 7.9375-0.5292-1.1995-0.9172-2.5047-1.8345-3.4572-0.9877-1.2348-2.4341-1.9403-3.81-2.6106 1.3053-2.3283 4.1275-2.8928 5.9973-4.6214 0-0.7055-0.8114-0.5997-1.27-0.7761-3.7395-0.635-7.4789-1.7286-11.324-1.3758-1.3053 0.0705-2.54 0.4939-3.8453 0.7408-0.8819-0.8819-1.4464-2.1167-2.5047-2.8575-1.4464-1.1642-3.4572-1.4817-5.2564-1.0583-2.1166 0.388-4.198 0.9172-6.2441 1.5875 2.0108-3.2456 4.445-6.2089 6.3852-9.4545 1.5523-2.6458 3.8806-4.833 6.6323-6.103 1.3052-0.5292 2.4341-1.7639 2.2577-3.2456-0.1764-2.0814-1.8697-3.4572-3.1397-4.9036 1.6933-1.7286 3.2103-3.7042 3.9864-6.0325 0.3175-0.635 0.3881-1.4111 0.8467-1.9403z" fill="#fff"/>
</svg>
